<?xml version="1.0" standalone="no"?>
<!DOCTYPE svg PUBLIC "-//W3C//DTD SVG 20010904//EN"
 "http://www.w3.org/TR/2001/REC-SVG-20010904/DTD/svg10.dtd">
<svg version="1.0" xmlns="http://www.w3.org/2000/svg"
 width="120.000000pt" height="120.000000pt" viewBox="0 0 120.000000 120.000000"
 preserveAspectRatio="xMidYMid meet">

<g transform="translate(0.000000,120.000000) scale(0.100000,-0.100000)"
fill="#000000" stroke="none">
<path d="M65 1191 c-11 -5 -29 -19 -40 -31 -19 -22 -20 -36 -20 -562 l0 -540
34 -30 33 -30 113 4 c100 3 116 6 137 25 13 12 52 81 88 153 l65 131 35 -8
c210 -49 393 89 394 297 1 94 -32 169 -102 230 l-46 41 65 131 c67 136 85 158
131 158 l28 0 0 -186 c0 -109 4 -193 10 -205 9 -16 22 -19 90 -19 l80 0 0
-333 0 -334 -23 -21 c-20 -19 -36 -22 -142 -24 -99 -2 -120 -6 -120 -18 0 -23
223 -27 266 -5 60 31 60 32 57 605 l-3 520 -28 27 c-27 27 -30 28 -146 28
-147 0 -142 4 -231 -175 l-65 -131 -40 8 c-123 24 -238 -8 -310 -89 -58 -64
-80 -120 -79 -208 0 -97 28 -162 96 -226 l50 -47 -68 -134 c-38 -74 -76 -139
-86 -144 -9 -5 -60 -9 -112 -9 -150 0 -136 -57 -136 558 0 431 2 521 14 538
13 17 31 20 143 24 105 4 128 8 128 20 0 12 -21 15 -120 17 -66 1 -129 -2
-140 -6z m1074 -55 c13 -14 16 -42 16 -179 l0 -162 -65 0 -65 0 -3 170 c-1 93
0 176 3 183 7 20 91 10 114 -12z m-422 -294 c194 -99 202 -369 15 -475 -138
-77 -300 -27 -371 114 -24 48 -31 75 -31 120 0 112 85 225 194 259 48 15 146
5 193 -18z"/>
<path d="M529 713 c-113 -70 -61 -246 72 -246 76 0 129 57 129 138 0 42 -5 52
-39 86 -34 35 -44 39 -87 39 -27 0 -61 -8 -75 -17z m128 -39 c12 -8 26 -29 31
-47 25 -95 -83 -162 -155 -96 -49 47 -36 120 27 151 36 18 58 16 97 -8z"/>
</g>
</svg>
