<?xml version="1.0" encoding="utf-8"?>
<!-- Generator: Adobe Illustrator 15.0.0, SVG Export Plug-In . SVG Version: 6.00 Build 0)  -->
<!DOCTYPE svg PUBLIC "-//W3C//DTD SVG 1.1//EN" "http://www.w3.org/Graphics/SVG/1.1/DTD/svg11.dtd">
<svg version="1.1" id="Layer_1" xmlns="http://www.w3.org/2000/svg" xmlns:xlink="http://www.w3.org/1999/xlink" x="0px" y="0px"
	 width="1360.629px" height="1020.469px" viewBox="0 0 1360.629 1020.469" enable-background="new 0 0 1360.629 1020.469"
	 xml:space="preserve">
<path d="M724.875,61.003c-0.008,276.249-0.015,552.483-0.024,828.734c-1.954,0.001-3.911,0-5.882,0l-544.102-90.094
	c0.006-216.191,0.013-432.371,0.019-648.578l544.106-90.063H724.875z M470.454,475.377l77.954-133.057l-63.243-0.002l-47.022,77.617
	l-47.09-77.619l-63.229-0.002l77.931,133.047l-77.939,144.131l63.227,0.002l47.096-91.464l47.062,91.466l62.065-0.012
	L470.454,475.377z"/>
<path d="M751.346,216.77l0.001-66.53l345.582,0.01c0.001,0.015,0.001,0.028,0.001,0.028c-0.007,216.179-0.013,432.373-0.02,648.549
	l-345.581-0.01l0.002-66.515l86.76,0.002l0.003-88.691l-86.762-1.39l0.003-51.283l86.759,0.004l0.003-90.079l-86.76-0.127
	l0.001-52.543l86.76,0.002l0.004-90.079l-86.761-0.002l0.001-52.655l86.761,0.002l0.002-88.691L751.346,216.77z M1035.155,732.337
	l0.002-88.69l-152.854-0.048l-0.092,88.735L1035.155,732.337L1035.155,732.337z M1035.167,305.497l0.003-88.692L882.313,216.8
	l-0.089,88.692L1035.167,305.497z M1033.688,589.59l0.003-88.691l-151.384-0.004l-0.092,88.69L1033.688,589.59z M1033.693,448.23
	l-0.189-90.106l-151.251,0.052l0.056,90.049L1033.693,448.23z"/>
</svg>
