<?xml version="1.0" encoding="UTF-8"?>
<svg width="230px" height="22px" viewBox="0 0 230 22" version="1.1" xmlns="http://www.w3.org/2000/svg" xmlns:xlink="http://www.w3.org/1999/xlink">
    <!-- Generator: Sketch 55.2 (78181) - https://sketchapp.com -->
    <title>LogoHDBR_V1</title>
    <desc>Created with Sketch.</desc>
    <g id="Symbols" stroke="none" stroke-width="1" fill="none" fill-rule="evenodd">
        <g id="LogoHDBR_V1" fill="#FF5800">
            <path d="M37.6953921,19.7201613 L38.0546535,15.1144258 C38.2522158,12.5998258 38.3918936,10.2666194 38.4749453,8.11608387 C38.557997,5.96490968 38.5995228,4.46649677 38.5995228,3.61892903 L38.5844225,2.20801935 C39.7867842,2.22526452 40.638693,2.23420645 41.1382614,2.23420645 C41.5145106,2.23420645 42.283997,2.22526452 43.4460912,2.20801935 L43.0591459,8.00175484 L43.0151033,9.33857419 L53.4085167,9.33857419 L53.6029331,5.86335484 C53.6463465,4.67024516 53.6671094,3.88527097 53.6671094,3.50779355 L53.6671094,2.20801935 L56.2272401,2.23420645 C56.4524863,2.23420645 57.2188267,2.22526452 58.5275198,2.20801935 L58.026693,9.20955484 L57.7989301,14.3882129 L57.7372705,17.4252774 C57.7171368,18.6739548 57.7076991,19.4384903 57.7076991,19.7201613 L55.3187052,19.6939742 C55.0229909,19.6939742 54.1748571,19.7035548 52.7774498,19.7201613 C53.0347842,17.3039226 53.1983708,14.7644129 53.2682097,12.0997161 L42.8408207,12.0997161 L42.6199787,16.8127548 L42.55769,19.7201613 L40.0416018,19.6939742 C39.7660213,19.6939742 38.9839514,19.7035548 37.6953921,19.7201613" id="Fill-1"></path>
            <path d="M67.8744821,9.02394581 C66.9948894,9.02394581 66.207786,9.20597806 65.5156888,9.56940387 C64.8223331,9.93282968 64.3076644,10.4744555 63.969166,11.1930039 C63.6294091,11.912191 63.4601599,12.695249 63.4601599,13.5428168 C63.4601599,14.2869135 63.5992085,14.9498942 63.877935,15.5323974 C64.1560322,16.1149006 64.6109289,16.5843523 65.2426249,16.9439458 C65.8736918,17.3041781 66.6255611,17.4830168 67.4950869,17.4830168 C68.3847465,17.4830168 69.1649289,17.297791 69.8368924,16.9254232 C70.5094851,16.5524168 71.0153453,16.0050426 71.3538438,15.2813845 C71.6929714,14.5583652 71.8622207,13.7606168 71.8622207,12.8875006 C71.8622207,12.1772555 71.7307222,11.53152 71.4683544,10.9490168 C71.2047283,10.367791 70.7624152,9.90089419 70.1414152,9.55024258 C69.5185277,9.19959097 68.7628833,9.02394581 67.8744821,9.02394581 M67.8757404,6.36755226 C69.0472723,6.36755226 70.1709866,6.5157329 71.2462541,6.81081677 C72.3202632,7.10526194 73.2325733,7.54150065 73.9806675,8.11889419 C74.7300201,8.69692645 75.2925064,9.40206194 75.6706432,10.2362168 C76.0475216,11.0710103 76.2356462,11.9498748 76.2356462,12.873449 C76.2356462,13.8493974 76.0368255,14.7908555 75.638555,15.6971845 C75.242172,16.6041523 74.6664729,17.3897652 73.9120869,18.0521071 C73.1570717,18.7150877 72.2183362,19.2113652 71.0927343,19.5403006 C69.9665033,19.8705135 68.7666584,20.0346619 67.4938286,20.0346619 C66.3116006,20.0346619 65.1872571,19.8864813 64.1239441,19.5920361 C63.0587435,19.297591 62.1495793,18.8543265 61.3958225,18.2641587 C60.6408073,17.6733523 60.0688833,16.9554426 59.6762754,16.1072361 C59.2842967,15.2615845 59.0879927,14.3756942 59.0879927,13.4514813 C59.0879927,12.5106619 59.2654213,11.6119974 59.6227951,10.7561265 C59.9789106,9.90089419 60.5369927,9.14019097 61.295783,8.47210065 C62.0552024,7.80464903 63.025397,7.28729419 64.2076249,6.91939742 C65.3892237,6.55150065 66.6117191,6.36755226 67.8757404,6.36755226" id="Fill-3"></path>
            <path d="M77.2150897,19.4759187 L76.8709286,16.679009 C77.8700653,17.02008 78.7163116,17.2570413 79.409038,17.3892542 C80.1017644,17.5221058 80.7384939,17.5878929 81.3192264,17.5878929 C81.9005881,17.5878929 82.3907188,17.530409 82.7871018,17.4135252 C83.184114,17.2979187 83.4804574,17.1261058 83.6742447,16.8980865 C83.8674027,16.6687897 83.9649255,16.4311897 83.9649255,16.1801768 C83.9649255,16.0690413 83.9517128,15.9642929 83.9265456,15.8704026 C83.9007492,15.7765123 83.8548191,15.6775123 83.7881261,15.5740413 C83.7220623,15.4705703 83.6459316,15.3734865 83.5591049,15.2827897 C83.4716489,15.1920929 83.352734,15.0886219 83.1998435,14.9730155 C83.0469529,14.857409 82.8279985,14.7092284 82.5429802,14.5291123 L81.717497,13.9772671 C80.9234726,13.4554413 80.3156854,13.0453897 79.8991687,12.7451961 C79.4807644,12.44628 79.1296824,12.1403381 78.8446641,11.828009 C78.5590167,11.51568 78.3419498,11.1861058 78.1953511,10.8399252 C78.0462356,10.4937445 77.9726216,10.1405381 77.9726216,9.78094452 C77.9726216,9.15692516 78.1997553,8.56228645 78.6527644,7.99702839 C79.1064027,7.43240903 79.7664119,7.02044129 80.6321626,6.75920903 C81.4979134,6.49797677 82.5159255,6.36768 83.6880866,6.36768 C85.0213176,6.36768 86.5609195,6.49606065 88.3024878,6.75218323 L88.5088587,9.4430671 C87.3354392,9.0470671 86.2066915,8.8490671 85.124503,8.8490671 C84.5368495,8.8490671 84.0234392,8.89760903 83.5830137,8.99660903 C83.1432173,9.09497032 82.8261109,9.24378968 82.6342112,9.44498323 C82.4423116,9.64617677 82.3454179,9.86972516 82.3454179,10.1175445 C82.3454179,10.2625316 82.3756185,10.4056026 82.4372781,10.5461187 C82.4976793,10.6872735 82.6040106,10.8348155 82.756272,10.9881058 C82.9079043,11.1426735 83.0821869,11.2882994 83.2797492,11.4237058 C83.4766824,11.5610284 83.8900532,11.8299252 84.5167158,12.2323123 C85.1446368,12.6340606 85.6945395,12.9974865 86.1651657,13.3225897 C86.6357918,13.6476929 87.0227371,13.9759897 87.3266307,14.3049252 C87.6311535,14.6344994 87.8633207,14.9877058 88.0250198,15.3639058 C88.187348,15.7401058 88.2685122,16.1214155 88.2685122,16.5059187 C88.2685122,17.1471832 88.0338283,17.7424606 87.5650897,18.2904735 C87.0963511,18.837209 86.3878951,19.2645058 85.4397219,19.5730026 C84.4921778,19.8814994 83.4326398,20.0347897 82.2604787,20.0347897 C81.6489164,20.0347897 80.9039681,19.9932735 80.0287796,19.9115187 C79.1510745,19.8291252 78.2142264,19.6834994 77.2150897,19.4759187" id="Fill-5"></path>
            <path d="M100.07135,17.0283832 C99.9474018,17.499751 99.7529854,18.3741445 99.4862134,19.6502865 C98.6305295,19.8182671 97.9579368,19.9242929 97.4690644,19.9690026 C96.9795629,20.0124348 96.5208912,20.0347897 96.0943076,20.0347897 C95.3399216,20.0347897 94.6654413,19.9760284 94.0689793,19.8546735 C93.4731465,19.7358735 92.9817574,19.5257381 92.594183,19.222351 C92.2066085,18.9189639 91.9448699,18.56448 91.8070796,18.1582606 C91.6692894,17.7533187 91.601338,17.3330477 91.601338,16.8974477 C91.601338,16.786951 91.6057422,16.6368542 91.6164383,16.4490735 C91.625876,16.2612929 91.6674018,15.6557961 91.7384991,14.6313058 L92.0895812,9.30318968 L89.8799033,9.30318968 C89.9308669,8.7896671 89.976797,7.96189935 90.0176936,6.82244129 L92.3406237,6.82244129 C92.4022833,6.32808 92.4639429,5.48945419 92.5256024,4.30528645 L94.3338638,4.00317677 C94.7113714,3.94186065 95.4424778,3.79878968 96.5246663,3.57140903 C96.4541982,4.72811226 96.4145599,5.81136387 96.404493,6.82244129 L100.27835,6.82244129 C100.207882,7.97914452 100.172019,8.80627355 100.172019,9.30318968 L96.2849489,9.30318968 C96.0703988,12.7758542 95.9628091,14.7852348 95.9628091,15.3306929 C95.9628091,15.8595445 96.0307605,16.2695961 96.1679216,16.5595703 C96.3050827,16.8495445 96.5246663,17.0590413 96.8298182,17.1861445 C97.134341,17.3151639 97.4583684,17.3777574 97.8037878,17.3777574 C98.0573471,17.3777574 98.3241191,17.361151 98.6028456,17.3247445 C98.881572,17.2883381 99.3717027,17.1899768 100.07135,17.0283832" id="Fill-7"></path>
            <path d="M106.198487,16.9591471 C107.032779,16.9929987 107.857633,17.0102439 108.67242,17.0102439 C109.599202,17.0102439 110.456773,16.9719213 111.245135,16.8939987 C112.034126,16.8179923 112.71301,16.6966374 113.284305,16.5299342 C113.854341,16.363231 114.426895,16.0707019 115.001964,15.6523471 C115.577034,15.2333535 116.04766,14.7498503 116.413843,14.1980052 C116.781284,13.6474374 117.060639,13.0342761 117.253797,12.35916 C117.447584,11.6846826 117.544478,10.997431 117.544478,10.2967665 C117.544478,9.01487613 117.285885,7.96292129 116.766183,7.1383471 C116.248998,6.31441161 115.563822,5.72105032 114.714429,5.35762452 C113.865667,4.99547613 112.555715,4.81344387 110.787092,4.81344387 C109.637581,4.81344387 108.321338,4.83068903 106.837104,4.86390194 L106.198487,16.9591471 Z M101.499147,19.720289 L101.924472,15.2550697 L102.238433,9.67466323 L102.443545,4.11916645 C102.454241,3.88028903 102.459274,3.24285677 102.459274,2.20750839 C103.58991,2.22539226 104.653852,2.23369548 105.65236,2.23369548 C106.39542,2.23369548 107.375682,2.22092129 108.593144,2.1953729 C109.809977,2.16982452 110.861335,2.15641161 111.74722,2.15641161 C112.948952,2.15641161 114.0626,2.21645032 115.085645,2.33588903 C116.108691,2.45660516 117.002755,2.68143097 117.766578,3.01036645 C118.53166,3.33930194 119.192299,3.75190839 119.752898,4.2475471 C120.313496,4.74382452 120.771539,5.29311484 121.127654,5.89605677 C121.484399,6.49963742 121.756834,7.17028258 121.944958,7.9105471 C122.133083,8.6501729 122.228718,9.40512774 122.228718,10.1747729 C122.228718,11.6457213 121.924195,13.0470503 121.317037,14.3768439 C120.710509,15.7072761 119.805119,16.8052181 118.602758,17.6738632 C117.398509,18.5425084 116.065278,19.1007406 114.601806,19.34856 C113.137077,19.5963794 111.47856,19.720289 109.621852,19.720289 L104.421685,19.6947406 C104.095141,19.6947406 103.120542,19.7036826 101.499147,19.720289 L101.499147,19.720289 Z" id="Fill-9"></path>
            <path d="M125.427151,5.48389742 L123.814565,5.50944581 C123.855461,4.6248329 123.875595,3.0408329 123.875595,2.57010387 L123.875595,2.15685871 C124.804264,2.17410387 125.55865,2.1824071 126.14127,2.1824071 C126.936553,2.1824071 127.675838,2.17410387 128.359127,2.15685871 C128.328297,2.37146516 128.308164,2.61609097 128.298097,2.89073613 L128.221337,5.50944581 C127.446188,5.49220065 126.732069,5.48389742 126.078981,5.48389742 L125.427151,5.48389742 Z M122.993486,19.7200974 C123.147005,18.4382071 123.254595,17.3658135 123.316255,16.5016394 C123.418811,15.1348006 123.507525,13.5584652 123.584914,11.7713555 C123.660416,9.98616194 123.714525,8.28911032 123.745984,6.68211677 C124.745121,6.69936194 125.494474,6.70766516 125.994042,6.70766516 C126.452714,6.70766516 127.197662,6.69936194 128.22637,6.68211677 C128.08103,8.16967161 127.962744,9.5876071 127.874659,10.9384781 C127.785316,12.2887103 127.719881,13.8356652 127.678355,15.5793426 C127.636829,17.32302 127.615437,18.7026329 127.615437,19.7200974 C126.691173,19.703491 125.948112,19.694549 125.388142,19.694549 C124.859632,19.694549 124.061203,19.703491 122.993486,19.7200974 L122.993486,19.7200974 Z" id="Fill-11"></path>
            <path d="M128.967543,19.7201613 C129.110367,18.2670968 129.26137,16.0967613 129.418665,13.2078774 C129.577218,10.3189935 129.655866,8.14354839 129.655866,6.68218065 C130.518471,6.69942581 131.218118,6.70772903 131.756695,6.70772903 C132.375179,6.70772903 133.051547,6.69942581 133.787686,6.68218065 L133.649896,8.74074194 C133.97644,8.33899355 134.276559,8.01133548 134.548364,7.75904516 C134.81954,7.50675484 135.169364,7.27426452 135.599723,7.06029677 C136.030081,6.84632903 136.534054,6.67770968 137.112899,6.5538 C137.689857,6.42989032 138.286948,6.36793548 138.901656,6.36793548 C139.362215,6.36793548 139.807674,6.40370323 140.236774,6.47715484 C140.667133,6.54869032 141.058483,6.65216129 141.410823,6.78437419 C141.765051,6.91722581 142.065799,7.0686 142.317471,7.23977419 C142.567884,7.4115871 142.779917,7.60064516 142.9542,7.81078065 C143.129112,8.02027742 143.318495,8.33005161 143.523607,8.74074194 C143.746337,8.4411871 143.953337,8.19145161 144.142091,7.98961935 C144.329586,7.78906452 144.582516,7.58212258 144.897735,7.36815484 C145.213583,7.15482581 145.565923,6.97470968 145.95224,6.82908387 C146.339814,6.68409677 146.775206,6.57104516 147.259045,6.48929032 C147.743513,6.40817419 148.246227,6.36793548 148.765929,6.36793548 C149.651185,6.36793548 150.487364,6.48992903 151.271322,6.73327742 C152.05465,6.97726452 152.672504,7.36176774 153.121109,7.88742581 C153.569714,8.41372258 153.793702,9.06520645 153.793702,9.84315484 C153.793702,10.2538452 153.759726,10.8567871 153.692404,11.6519806 C153.623823,12.4471742 153.54203,13.7450323 153.444507,15.5449161 C153.348243,17.3454387 153.294762,18.7371871 153.284695,19.7201613 C152.534714,19.7035548 151.870929,19.6939742 151.29523,19.6939742 C150.616346,19.6939742 149.819805,19.7035548 148.904349,19.7201613 C148.998097,18.6171097 149.086811,17.4629613 149.170492,16.2564387 L149.357987,13.3196516 C149.40958,12.5755548 149.436005,11.9477032 149.436005,11.4341806 C149.436005,10.8203806 149.321495,10.3547613 149.091844,10.0392387 C148.861565,9.72371613 148.569626,9.49889032 148.219173,9.36476129 C147.866203,9.23127097 147.470449,9.16420645 147.031911,9.16420645 C146.57261,9.16420645 146.155464,9.23765806 145.783619,9.38392258 C145.410516,9.53082581 145.063838,9.76842581 144.741698,10.0960839 C144.420188,10.4243806 144.17292,10.8056903 143.999896,11.241929 C143.825613,11.677529 143.700407,12.2874968 143.623647,13.0699161 C143.545629,13.8516968 143.483969,14.8806581 143.436151,16.1542452 L143.334853,19.7201613 C142.483574,19.7035548 141.776376,19.6939742 141.213261,19.6939742 C140.649516,19.6939742 139.89513,19.7035548 138.953249,19.7201613 C139.027492,19.0610129 139.133823,17.7126968 139.272872,15.6745742 C139.41192,13.6370903 139.481759,12.2632258 139.481759,11.5523419 C139.481759,11.1761419 139.444638,10.8567871 139.37354,10.5955548 C139.301814,10.3349613 139.154586,10.0865032 138.935002,9.85081935 C138.71416,9.61577419 138.454939,9.44268387 138.157337,9.33090968 C137.860364,9.21977419 137.517461,9.16420645 137.127999,9.16420645 C136.408847,9.16420645 135.77841,9.36156774 135.234799,9.75629032 C134.691817,10.1516516 134.293547,10.6792258 134.041875,11.3402903 C133.790832,12.0019935 133.612774,13.2832452 133.505814,15.1866 C133.399483,17.0893161 133.346632,18.6005032 133.346632,19.7201613 C132.407896,19.7035548 131.698182,19.6939742 131.218118,19.6939742 C130.677653,19.6939742 129.927671,19.7035548 128.967543,19.7201613" id="Fill-13"></path>
            <path d="M159.536788,11.6804671 L166.664131,11.69388 C166.664131,11.2793574 166.648402,10.9734155 166.618201,10.7747768 C166.586742,10.5761381 166.51942,10.3500348 166.413088,10.0951897 C166.306128,9.84034452 166.161417,9.61615742 165.978326,9.42198968 C165.795234,9.22654452 165.581313,9.06558968 165.339079,8.93593161 C165.094329,8.80627355 164.813085,8.70727355 164.493462,8.6382929 C164.17321,8.56931226 163.830936,8.53418323 163.465383,8.53418323 C163.0388,8.53418323 162.6248,8.59102839 162.224012,8.70280258 C161.823225,8.81585419 161.455155,8.97872516 161.119803,9.19524774 C160.785079,9.41113161 160.513903,9.65256387 160.305016,9.91954452 C160.096757,10.1871639 159.941979,10.4452026 159.840681,10.6904671 C159.739383,10.9363703 159.637456,11.2672219 159.536788,11.6804671 M169.418678,16.8188865 C169.289696,17.3247445 169.105347,18.2336284 168.867517,19.5455381 C167.764566,19.7377897 166.835268,19.866809 166.078365,19.9338735 C165.322721,20.0009381 164.562672,20.0347897 163.796332,20.0347897 C162.458696,20.0347897 161.26011,19.9236542 160.203088,19.7020219 C159.146067,19.479751 158.218657,19.0709768 157.424003,18.4776155 C156.626204,17.8823381 156.03855,17.154209 155.661043,16.2906735 C155.282906,15.4277768 155.094152,14.5220865 155.094152,13.5729639 C155.094152,12.5216477 155.313107,11.5022671 155.751016,10.5148219 C156.189553,9.52801548 156.803633,8.72068645 157.593882,8.09219613 C158.383502,7.46434452 159.28197,7.01980258 160.290544,6.75857032 C161.300377,6.49797677 162.354253,6.36768 163.455316,6.36768 C164.494721,6.36768 165.482532,6.47689935 166.420009,6.69533806 C167.356857,6.91377677 168.145848,7.27081548 168.781319,7.7670929 C169.418678,8.26400903 169.90755,8.86120258 170.248566,9.55931226 C170.59021,10.2567832 170.760718,11.0340929 170.760718,11.8899639 C170.760718,12.292351 170.710383,12.7075123 170.608456,13.1354477 L159.398368,13.1482219 C159.378234,13.4637445 159.368797,13.7153961 159.368797,13.9025381 C159.368797,14.4729058 159.485195,14.9972865 159.720508,15.4737639 C159.955192,15.95088 160.296836,16.3551832 160.74607,16.6866735 C161.195933,17.0194413 161.732623,17.2647058 162.355511,17.4218284 C162.978398,17.5795897 163.59059,17.658151 164.193344,17.658151 C164.898654,17.658151 165.662478,17.5949187 166.483557,17.4678155 C167.305894,17.3407123 168.284268,17.1241897 169.418678,16.8188865" id="Fill-15"></path>
            <path d="M31.8815863,5.27682774 L29.4636502,4.61831806 C29.2522459,4.54358903 29.0798508,4.66877613 29.0798508,4.89551806 L29.0798508,17.0092858 C29.0798508,17.2360277 29.2522459,17.3605761 29.4636502,17.2864858 L31.8815863,16.6273374 C32.0923614,16.5538858 32.2647565,16.3067052 32.2647565,16.0799632 L32.2647565,5.82420194 C32.2647565,5.59682129 32.0923614,5.35091806 31.8815863,5.27682774" id="Fill-17"></path>
            <path d="M2.80173556,4.61812645 L0.383170213,5.27663613 C0.172395137,5.35072645 0,5.59726839 0,5.82401032 L0,16.0797716 C0,16.3065135 0.172395137,16.5536942 0.383170213,16.6277845 L2.80173556,17.2862942 C3.01313982,17.3603845 3.18490578,17.2358361 3.18490578,17.0090942 L3.18490578,4.89596516 C3.18490578,4.66922323 3.01313982,4.54339742 2.80173556,4.61812645" id="Fill-19"></path>
            <path d="M27.4275629,3.89121097 L16.5175933,0.0557593548 C16.4118912,0.0187141936 16.2728426,0.000191612911 16.1337939,0.000191612911 C15.9941161,0.000191612911 15.8544383,0.0187141936 15.7487362,0.0557593548 L4.83939574,3.89121097 C4.62862067,3.96594 4.45559635,4.21184323 4.45559635,4.43858516 L4.45559635,7.37217871 C4.45559635,7.59892065 4.63617082,7.75476581 4.85638359,7.71835935 L15.7323775,5.94274645 C15.8424839,5.92486258 15.9878243,5.91592065 16.1337939,5.91592065 C16.2791343,5.91592065 16.4244748,5.92486258 16.5352103,5.94274645 L27.4105751,7.71835935 C27.6307878,7.75476581 27.8107331,7.59892065 27.8107331,7.37217871 L27.8107331,4.43858516 C27.8107331,4.21184323 27.6389672,3.96594 27.4275629,3.89121097" id="Fill-21"></path>
            <path d="M27.4103863,14.2093742 L16.5350216,15.9849871 C16.424286,16.0035097 16.2795748,16.0124516 16.132976,16.0124516 C15.9882647,16.0124516 15.8422951,16.0035097 15.7321888,15.9849871 L4.85619483,14.2093742 C4.63661125,14.1729677 4.45603678,14.3294516 4.45603678,14.5561935 L4.45603678,17.4891484 C4.45603678,17.7158903 4.62843191,17.9617935 4.83920699,18.0365226 L15.7498058,21.8726129 C15.8548787,21.9096581 15.9939274,21.9281806 16.132976,21.9281806 C16.273283,21.9281806 16.4123316,21.9096581 16.5180337,21.8726129 L27.4273742,18.0365226 C27.6387784,17.9617935 27.8111736,17.7158903 27.8111736,17.4891484 L27.8111736,14.5561935 C27.8111736,14.3294516 27.6305991,14.1729677 27.4103863,14.2093742" id="Fill-23"></path>
            <path d="M27.4066742,9.03486774 L16.5388596,8.01165484 C16.4274948,8.00143548 16.2796377,7.99632581 16.1336681,7.99632581 C15.9870693,7.99632581 15.8398413,8.00143548 15.7284766,8.01165484 L4.86003283,9.03486774 C4.63793252,9.05594516 4.45547052,9.25905484 4.45547052,9.48515806 L4.45547052,12.4181129 C4.45547052,12.6454935 4.63793252,12.8486032 4.86003283,12.8696806 L15.7284766,13.8922548 C15.8398413,13.9031129 15.9870693,13.9082226 16.1336681,13.9082226 C16.2796377,13.9082226 16.4274948,13.9031129 16.5388596,13.8922548 L27.4066742,12.8696806 C27.6294036,12.8486032 27.8112365,12.6454935 27.8112365,12.4181129 L27.8112365,9.48515806 C27.8112365,9.25905484 27.6294036,9.05594516 27.4066742,9.03486774" id="Fill-26"></path>
            <path d="M183.012412,4.50277548 C183.822795,4.50277548 184.227987,4.14318194 184.227987,3.42271742 C184.227987,2.71183355 183.822795,2.35734968 183.012412,2.35734968 L181.584804,2.35734968 L181.584804,4.50277548 L183.012412,4.50277548 Z M181.049373,7.18918839 C180.994005,7.1304271 180.966321,7.05250452 180.966321,6.95542065 L180.966321,2.14210452 C180.966321,2.05013032 180.995263,1.97604 181.053148,1.91983355 C181.111032,1.8636271 181.187792,1.83552387 181.283427,1.83552387 L183.072813,1.83552387 C183.630895,1.83552387 184.065658,1.97348516 184.375215,2.25004645 C184.684771,2.52533032 184.839549,2.91685935 184.839549,3.42271742 C184.839549,3.92857548 184.683512,4.32138194 184.37144,4.60241419 C184.059367,4.88408516 183.626491,5.02396258 183.072813,5.02396258 L181.584804,5.02396258 L181.584804,6.95542065 C181.584804,7.05250452 181.55712,7.1304271 181.502382,7.18918839 C181.447014,7.24794968 181.371512,7.27733032 181.275877,7.27733032 C181.180242,7.27733032 181.10474,7.24794968 181.049373,7.18918839 L181.049373,7.18918839 Z" id="Fill-28"></path>
            <path d="M187.806884,3.69065613 C187.806884,3.77241097 187.784234,3.83692065 187.738933,3.88610129 C187.693632,3.93464323 187.614985,3.96402387 187.504878,3.97360452 L187.278374,3.99659806 C186.941134,4.02725613 186.69072,4.14924968 186.527134,4.36130129 C186.363547,4.5733529 186.281754,4.82181097 186.281754,5.10859161 L186.281754,6.97106903 C186.281754,7.07326258 186.25407,7.14990774 186.198702,7.20100452 C186.142705,7.25146258 186.07035,7.27701097 185.979748,7.27701097 C185.889146,7.27701097 185.814903,7.25018516 185.757018,7.19653355 C185.698505,7.14288194 185.670191,7.0681529 185.670191,6.97106903 L185.670191,3.73600452 C185.670191,3.63955935 185.700392,3.56419161 185.760793,3.51054 C185.821195,3.45688839 185.894179,3.43006258 185.979748,3.43006258 C186.060283,3.43006258 186.128234,3.45688839 186.183602,3.51054 C186.23897,3.56419161 186.266653,3.63700452 186.266653,3.72897871 L186.266653,4.1575529 C186.372356,3.93336581 186.5221,3.7615529 186.715888,3.64466903 C186.909675,3.52714645 187.132404,3.45816581 187.384076,3.4377271 L187.489778,3.43006258 C187.701182,3.41409484 187.806884,3.50159806 187.806884,3.69065613" id="Fill-30"></path>
            <path d="M189.011134,4.2039871 C188.816717,4.40837419 188.702836,4.69707097 188.666973,5.06943871 L190.804295,5.06943871 C190.793599,4.69196129 190.701109,4.40262581 190.52431,4.20015484 C190.34814,3.99832258 190.101502,3.89740645 189.784395,3.89740645 C189.462884,3.89740645 189.204921,3.9996 189.011134,4.2039871 M191.249754,6.44202581 C191.289392,6.4880129 191.309526,6.54677419 191.309526,6.61830968 C191.309526,6.74605161 191.22207,6.86357419 191.045271,6.97087742 C190.864067,7.07818065 190.673426,7.15865806 190.471459,7.21230968 C190.270122,7.26596129 190.073818,7.2927871 189.883176,7.2927871 C189.313769,7.2927871 188.865164,7.1216129 188.534845,6.77926452 C188.205784,6.43691613 188.04031,5.96427097 188.04031,5.36132903 C188.04031,4.97810323 188.113295,4.6395871 188.259894,4.34578065 C188.405234,4.05197419 188.610347,3.82331613 188.874602,3.65980645 C189.138857,3.49629677 189.440234,3.41454194 189.777474,3.41454194 C190.25565,3.41454194 190.635046,3.57294194 190.916918,3.88974194 C191.199419,4.20654194 191.339726,4.63575484 191.339726,5.17738065 C191.339726,5.27957419 191.320222,5.35366452 191.279325,5.39965161 C191.239058,5.44563871 191.174252,5.46799355 191.08365,5.46799355 L188.652502,5.46799355 C188.697802,6.34749677 189.107398,6.78692903 189.883176,6.78692903 C190.078851,6.78692903 190.2481,6.76010323 190.388407,6.70645161 C190.529343,6.6528 190.680347,6.5799871 190.841416,6.4880129 C190.972286,6.41136774 191.061,6.37304516 191.105672,6.37304516 C191.16104,6.37304516 191.208857,6.39603871 191.249754,6.44202581" id="Fill-32"></path>
            <path d="M197.554257,4.89385742 L197.554257,6.97094129 C197.554257,7.06802516 197.525943,7.14275419 197.470576,7.19640581 C197.415208,7.25005742 197.342852,7.27688323 197.25225,7.27688323 C197.161649,7.27688323 197.087405,7.25005742 197.029521,7.19640581 C196.971007,7.14275419 196.942065,7.06802516 196.942065,6.97094129 L196.942065,4.90854774 C196.942065,4.56683806 196.882293,4.31901871 196.760861,4.16572839 C196.640688,4.01243806 196.451934,3.9357929 196.195229,3.9357929 C195.88819,3.9357929 195.646585,4.04054129 195.469785,4.25003806 C195.293615,4.45953484 195.206159,4.74312194 195.206159,5.10079935 L195.206159,6.97094129 C195.206159,7.06802516 195.177217,7.14275419 195.119333,7.19640581 C195.060819,7.25005742 194.987205,7.27688323 194.895974,7.27688323 C194.806001,7.27688323 194.733016,7.25005742 194.677649,7.19640581 C194.622281,7.14275419 194.594597,7.06802516 194.594597,6.97094129 L194.594597,4.90854774 C194.594597,4.56683806 194.533567,4.31901871 194.413393,4.16572839 C194.291962,4.01243806 194.10132,3.9357929 193.839582,3.9357929 C193.536947,3.9357929 193.2966,4.04054129 193.117913,4.25003806 C192.939855,4.45953484 192.849883,4.74312194 192.849883,5.10079935 L192.849883,6.97094129 C192.849883,7.06802516 192.822199,7.14275419 192.76746,7.19640581 C192.712092,7.25005742 192.639108,7.27688323 192.548506,7.27688323 C192.457275,7.27688323 192.383032,7.25005742 192.325147,7.19640581 C192.267892,7.14275419 192.23895,7.06802516 192.23895,6.97094129 L192.23895,3.73651548 C192.23895,3.64454129 192.267892,3.57045097 192.325147,3.51424452 C192.383032,3.45803806 192.457275,3.42993484 192.548506,3.42993484 C192.634074,3.42993484 192.703913,3.45676065 192.75991,3.51041226 C192.815278,3.56406387 192.842962,3.63687677 192.842962,3.72885097 L192.842962,4.09674774 C192.953697,3.87703161 193.107217,3.70841226 193.302892,3.59088968 C193.499825,3.4733671 193.726329,3.41460581 193.982405,3.41460581 C194.556217,3.41460581 194.931208,3.65987032 195.107378,4.15039935 C195.21308,3.92557355 195.37415,3.74673484 195.591217,3.61388323 C195.807655,3.48103161 196.053664,3.41460581 196.331132,3.41460581 C197.146548,3.41460581 197.554257,3.90768968 197.554257,4.89385742" id="Fill-34"></path>
            <path d="M198.757877,7.19666129 C198.699992,7.14300968 198.67105,7.06828065 198.67105,6.97055806 L198.67105,3.73613226 C198.67105,3.6396871 198.699992,3.56431935 198.757877,3.51066774 C198.815761,3.45701613 198.890004,3.43019032 198.980606,3.43019032 C199.071208,3.43019032 199.144193,3.45701613 199.19956,3.51066774 C199.254928,3.56431935 199.282612,3.6396871 199.282612,3.73613226 L199.282612,6.97055806 C199.282612,7.07339032 199.254928,7.15003548 199.19956,7.20113226 C199.144193,7.25159032 199.071208,7.27713871 198.980606,7.27713871 C198.890004,7.27713871 198.815761,7.2503129 198.757877,7.19666129 M198.68615,2.5181129 C198.611278,2.44657742 198.572898,2.35140968 198.572898,2.2338871 C198.572898,2.1221129 198.611278,2.0295 198.68615,1.95860323 C198.761652,1.88706774 198.859804,1.8513 198.980606,1.8513 C199.101409,1.8513 199.19956,1.88706774 199.275062,1.95860323 C199.350564,2.0295 199.388314,2.1221129 199.388314,2.2338871 C199.388314,2.35140968 199.350564,2.44657742 199.275062,2.5181129 C199.19956,2.58900968 199.101409,2.62541613 198.980606,2.62541613 C198.859804,2.62541613 198.761652,2.58900968 198.68615,2.5181129" id="Fill-36"></path>
            <path d="M201.174491,4.2039871 C200.980075,4.40837419 200.866194,4.69707097 200.83033,5.06943871 L202.967653,5.06943871 C202.956957,4.69196129 202.864467,4.40262581 202.687668,4.20015484 C202.511498,3.99832258 202.264859,3.89740645 201.947753,3.89740645 C201.626242,3.89740645 201.368279,3.9996 201.174491,4.2039871 M203.413112,6.44202581 C203.45275,6.4880129 203.472884,6.54677419 203.472884,6.61830968 C203.472884,6.74605161 203.385428,6.86357419 203.208628,6.97087742 C203.027425,7.07818065 202.836783,7.15865806 202.634817,7.21230968 C202.433479,7.26596129 202.237175,7.2927871 202.046534,7.2927871 C201.477127,7.2927871 201.028522,7.1216129 200.698203,6.77926452 C200.369142,6.43691613 200.203668,5.96427097 200.203668,5.36132903 C200.203668,4.97810323 200.276653,4.6395871 200.423251,4.34578065 C200.568592,4.05197419 200.773704,3.82331613 201.03796,3.65980645 C201.302215,3.49629677 201.603592,3.41454194 201.940832,3.41454194 C202.419008,3.41454194 202.798403,3.57294194 203.080276,3.88974194 C203.362777,4.20654194 203.503084,4.63575484 203.503084,5.17738065 C203.503084,5.27957419 203.48358,5.35366452 203.442683,5.39965161 C203.402416,5.44563871 203.33761,5.46799355 203.247008,5.46799355 L200.815859,5.46799355 C200.86116,6.34749677 201.270756,6.78692903 202.046534,6.78692903 C202.242209,6.78692903 202.411458,6.76010323 202.551765,6.70645161 C202.692701,6.6528 202.843704,6.5799871 203.004774,6.4880129 C203.135643,6.41136774 203.224358,6.37304516 203.269029,6.37304516 C203.324397,6.37304516 203.372215,6.39603871 203.413112,6.44202581" id="Fill-38"></path>
            <path d="M206.538434,3.69065613 C206.538434,3.77241097 206.515784,3.83692065 206.470483,3.88610129 C206.425182,3.93464323 206.346534,3.96402387 206.236428,3.97360452 L206.009923,3.99659806 C205.672683,4.02725613 205.42227,4.14924968 205.258683,4.36130129 C205.095097,4.5733529 205.013303,4.82181097 205.013303,5.10859161 L205.013303,6.97106903 C205.013303,7.07326258 204.985619,7.14990774 204.930252,7.20100452 C204.874255,7.25146258 204.801899,7.27701097 204.711297,7.27701097 C204.620695,7.27701097 204.546452,7.25018516 204.488568,7.19653355 C204.430054,7.14288194 204.401741,7.0681529 204.401741,6.97106903 L204.401741,3.73600452 C204.401741,3.63955935 204.431942,3.56419161 204.492343,3.51054 C204.552744,3.45688839 204.625729,3.43006258 204.711297,3.43006258 C204.791832,3.43006258 204.859784,3.45688839 204.915151,3.51054 C204.970519,3.56419161 204.998203,3.63700452 204.998203,3.72897871 L204.998203,4.1575529 C205.103905,3.93336581 205.25365,3.7615529 205.447437,3.64466903 C205.641224,3.52714645 205.863954,3.45816581 206.115626,3.4377271 L206.221328,3.43006258 C206.432732,3.41409484 206.538434,3.50159806 206.538434,3.69065613" id="Fill-40"></path>
            <path d="M213.24687,4.49530258 C213.294688,4.54128968 213.318596,4.60516065 213.318596,4.68691548 L213.318596,6.59538 C213.318596,6.71737355 213.299721,6.80998645 213.261341,6.87130258 C213.224219,6.93198 213.15501,6.98116065 213.053712,7.01692839 C212.853004,7.1037929 212.608253,7.17277355 212.321347,7.22323161 C212.035071,7.2749671 211.748165,7.30051548 211.461259,7.30051548 C210.932748,7.30051548 210.477222,7.19065742 210.094681,6.97094129 C209.71214,6.75122516 209.418943,6.43442516 209.215089,6.02054129 C209.011235,5.60665742 208.908678,5.11101871 208.908678,4.53362516 C208.908678,3.96645097 209.009976,3.47592194 209.211314,3.06203806 C209.412022,2.64751548 209.702074,2.33007677 210.079581,2.10780581 C210.45646,1.88553484 210.900031,1.77439935 211.408408,1.77439935 C211.760748,1.77439935 212.087922,1.82932839 212.389928,1.93918645 C212.691934,2.04904452 212.945493,2.2061671 213.152493,2.41055419 C213.237432,2.49741871 213.280846,2.58683806 213.280846,2.67881226 C213.280846,2.75034774 213.260083,2.81294129 213.220444,2.8665929 C213.180177,2.92024452 213.129213,2.94707032 213.069441,2.94707032 C213.00904,2.94707032 212.938572,2.91641226 212.858037,2.85509613 C212.596298,2.65070903 212.359727,2.50891548 212.148323,2.42971548 C211.936919,2.35051548 211.692168,2.31091548 211.415958,2.31091548 C210.816979,2.31091548 210.357678,2.50252839 210.037426,2.88511548 C209.718432,3.26898 209.558621,3.81827032 209.558621,4.53362516 C209.558621,5.26430903 209.720949,5.81998645 210.045605,6.20065742 C210.370262,6.58132839 210.84718,6.77102516 211.476359,6.77102516 C211.944469,6.77102516 212.369165,6.70012839 212.752335,6.55705742 L212.752335,4.91685097 L211.650013,4.91685097 C211.563815,4.91685097 211.496493,4.89385742 211.446159,4.84787032 C211.395824,4.80124452 211.370657,4.74312194 211.370657,4.67158645 C211.370657,4.59494129 211.395824,4.53490258 211.446159,4.49147032 C211.496493,4.44803806 211.563815,4.42632194 211.650013,4.42632194 L213.061891,4.42632194 C213.137393,4.42632194 213.199052,4.44931548 213.24687,4.49530258" id="Fill-42"></path>
            <path d="M214.567895,7.19666129 C214.51001,7.14300968 214.481068,7.06828065 214.481068,6.97055806 L214.481068,2.10359032 C214.481068,2.00714516 214.51001,1.93177742 214.567895,1.87812581 C214.625779,1.82447419 214.700022,1.79764839 214.790624,1.79764839 C214.876193,1.79764839 214.947919,1.82447419 215.005804,1.87812581 C215.063688,1.93177742 215.09263,2.00714516 215.09263,2.10359032 L215.09263,6.97055806 C215.09263,7.06828065 215.063688,7.14300968 215.005804,7.19666129 C214.947919,7.2503129 214.876193,7.27713871 214.790624,7.27713871 C214.700022,7.27713871 214.625779,7.2503129 214.567895,7.19666129" id="Fill-44"></path>
            <path d="M218.591811,6.41513613 C218.786228,6.17242645 218.882492,5.81858129 218.882492,5.35360065 C218.882492,4.89883935 218.784969,4.54754903 218.588036,4.29972968 C218.392361,4.05191032 218.114893,3.92800065 217.758149,3.92800065 C217.400146,3.92800065 217.123307,4.05191032 216.927003,4.29972968 C216.730699,4.54754903 216.633176,4.89883935 216.633176,5.35360065 C216.633176,5.81347161 216.72944,6.16603935 216.923857,6.41130387 C217.117015,6.65656839 217.395741,6.77920065 217.758149,6.77920065 C218.119927,6.77920065 218.398024,6.65784581 218.591811,6.41513613 M216.840805,7.05512323 C216.575921,6.89672323 216.372696,6.67062 216.228614,6.37681355 C216.08579,6.0830071 216.013434,5.74193613 216.013434,5.35360065 C216.013434,4.96526516 216.08579,4.62419419 216.228614,4.33038774 C216.372696,4.03658129 216.575921,3.81047806 216.840805,3.65207806 C217.10506,3.49367806 217.410212,3.41447806 217.758149,3.41447806 C218.105456,3.41447806 218.411866,3.49367806 218.679267,3.65207806 C218.94541,3.81047806 219.151152,4.03658129 219.293975,4.33038774 C219.438057,4.62419419 219.509155,4.96526516 219.509155,5.35360065 C219.509155,5.74193613 219.438057,6.0830071 219.293975,6.37681355 C219.151152,6.67062 218.94541,6.89672323 218.679267,7.05512323 C218.411866,7.21352323 218.105456,7.29272323 217.758149,7.29272323 C217.410212,7.29272323 217.10506,7.21352323 216.840805,7.05512323" id="Fill-46"></path>
            <path d="M222.982539,6.39955161 C223.178843,6.14662258 223.276995,5.79341613 223.276995,5.33865484 C223.276995,4.8941129 223.178843,4.54920968 222.982539,4.30394516 C222.786235,4.05804194 222.509396,3.93604839 222.152022,3.93604839 C221.794649,3.93604839 221.519068,4.05804194 221.325281,4.30394516 C221.131494,4.54920968 221.0346,4.89858387 221.0346,5.35334516 C221.0346,5.80810645 221.131494,6.16003548 221.325281,6.40785484 C221.519068,6.65503548 221.794649,6.77958387 222.152022,6.77958387 C222.509396,6.77958387 222.786235,6.65248065 222.982539,6.39955161 M223.125992,3.65182258 C223.37263,3.81022258 223.563901,4.0356871 223.699804,4.32693871 C223.835706,4.61819032 223.903658,4.95479032 223.903658,5.33865484 C223.903658,5.72635161 223.835706,6.06742258 223.699804,6.36122903 C223.563901,6.65503548 223.37263,6.88433226 223.125992,7.04784194 C222.879354,7.21135161 222.594965,7.29246774 222.272825,7.29246774 C221.985919,7.29246774 221.735506,7.22923548 221.521585,7.10149355 C221.307664,6.9731129 221.145336,6.79171935 221.0346,6.55667419 L221.0346,6.97119677 C221.0346,7.06253226 221.008174,7.13662258 220.955323,7.19282903 C220.902472,7.24903548 220.828229,7.27713871 220.732594,7.27713871 C220.636329,7.27713871 220.561457,7.24903548 220.506089,7.19282903 C220.450722,7.13662258 220.423038,7.06253226 220.423038,6.97119677 L220.423038,2.09656452 C220.423038,2.0097 220.450722,1.93816452 220.506089,1.88195806 C220.561457,1.82575161 220.636329,1.79764839 220.732594,1.79764839 C220.828229,1.79764839 220.902472,1.82447419 220.955323,1.87812581 C221.008174,1.93177742 221.0346,2.00395161 221.0346,2.09656452 L221.0346,4.15065484 C221.145336,3.91497097 221.307664,3.73357742 221.521585,3.60583548 C221.735506,3.47873226 221.985919,3.41422258 222.272825,3.41422258 C222.594965,3.41422258 222.879354,3.49342258 223.125992,3.65182258" id="Fill-48"></path>
            <path d="M226.814116,6.49184516 C227.007903,6.28490323 227.104796,6.01792258 227.104796,5.69090323 L227.104796,5.46799355 L226.968894,5.46799355 C226.525951,5.46799355 226.188711,5.48779355 225.957173,5.52611613 C225.725635,5.56443871 225.56079,5.62830968 225.462638,5.71772903 C225.364486,5.80714839 225.31541,5.93872258 225.31541,6.11245161 C225.31541,6.31172903 225.387137,6.47651613 225.53059,6.6068129 C225.674043,6.73710968 225.853988,6.80225806 226.070426,6.80225806 C226.372432,6.80225806 226.620328,6.6987871 226.814116,6.49184516 M227.701258,4.88612903 L227.701258,6.97087742 C227.701258,7.06285161 227.674833,7.13694194 227.621982,7.19314839 C227.569131,7.24935484 227.497404,7.27681935 227.406802,7.27681935 C227.316201,7.27681935 227.243216,7.24935484 227.187848,7.19314839 C227.13248,7.13694194 227.104796,7.06285161 227.104796,6.97087742 L227.104796,6.60298065 C227.009161,6.82269677 226.863191,6.99259355 226.666888,7.11267097 C226.470584,7.23274839 226.244079,7.2927871 225.987374,7.2927871 C225.750802,7.2927871 225.533106,7.24424516 225.334286,7.14716129 C225.135465,7.05007742 224.97817,6.91467097 224.862401,6.74094194 C224.746632,6.5672129 224.688748,6.3756 224.688748,6.16610323 C224.688748,5.88507097 224.759216,5.66663226 224.900152,5.5107871 C225.041088,5.35494194 225.272626,5.24252903 225.595395,5.17354839 C225.916906,5.10456774 226.364881,5.06943871 226.938693,5.06943871 L227.104796,5.06943871 L227.104796,4.81714839 C227.104796,4.50992903 227.043137,4.28574194 226.919818,4.14267097 C226.796498,3.9996 226.596419,3.92806452 226.319581,3.92806452 C225.977307,3.92806452 225.63,4.02259355 225.27766,4.21165161 C225.141757,4.29851613 225.046122,4.34194839 224.990754,4.34194839 C224.930353,4.34194839 224.880018,4.31895484 224.839751,4.27296774 C224.799483,4.22698065 224.77935,4.16821935 224.77935,4.09668387 C224.77935,4.02514839 224.800742,3.96255484 224.843526,3.90890323 C224.88631,3.85525161 224.95552,3.80032258 225.051155,3.74411613 C225.227325,3.64192258 225.427404,3.56144516 225.651392,3.50268387 C225.87538,3.44456129 226.098109,3.41454194 226.319581,3.41454194 C227.240699,3.41454194 227.701258,3.90507097 227.701258,4.88612903" id="Fill-50"></path>
            <path d="M228.905696,7.19666129 C228.847183,7.14300968 228.81824,7.06828065 228.81824,6.97055806 L228.81824,2.10359032 C228.81824,2.00714516 228.847183,1.93177742 228.905696,1.87812581 C228.963581,1.82447419 229.037824,1.79764839 229.128426,1.79764839 C229.213365,1.79764839 229.285721,1.82447419 229.342976,1.87812581 C229.40086,1.93177742 229.430432,2.00714516 229.430432,2.10359032 L229.430432,6.97055806 C229.430432,7.06828065 229.40086,7.14300968 229.342976,7.19666129 C229.285721,7.2503129 229.213365,7.27713871 229.128426,7.27713871 C229.037824,7.27713871 228.963581,7.2503129 228.905696,7.19666129" id="Fill-52"></path>
            <path d="M182.718145,14.3671994 C184.096677,14.3671994 184.786887,13.64418 184.786887,12.1981413 C184.786887,10.7572123 184.096677,10.0367477 182.718145,10.0367477 L181.584993,10.0367477 L181.584993,14.3671994 L182.718145,14.3671994 Z M181.053336,14.8194058 C180.995452,14.7631994 180.96651,14.689109 180.96651,14.5964961 L180.96651,9.80617355 C180.96651,9.71483806 180.995452,9.64074774 181.053336,9.58454129 C181.110592,9.52833484 181.187352,9.50023161 181.283616,9.50023161 L182.755896,9.50023161 C183.605917,9.50023161 184.264668,9.73399935 184.729631,10.2015348 C185.195853,10.6690703 185.42865,11.3346058 185.42865,12.1981413 C185.42865,13.0616768 185.194595,13.7284897 184.725856,14.19858 C184.257747,14.6686703 183.600884,14.9037155 182.755896,14.9037155 L181.283616,14.9037155 C181.187352,14.9037155 181.110592,14.8756123 181.053336,14.8194058 L181.053336,14.8194058 Z" id="Fill-55"></path>
            <path d="M188.452611,14.1563613 C188.646398,13.9494194 188.743292,13.6824387 188.743292,13.3554194 L188.743292,13.1325097 L188.60676,13.1325097 C188.163818,13.1325097 187.827207,13.1523097 187.595669,13.1906323 C187.364131,13.2289548 187.199286,13.2928258 187.101134,13.3822452 C187.002353,13.4716645 186.953277,13.6032387 186.953277,13.7769677 C186.953277,13.9762452 187.025003,14.1410323 187.169085,14.271329 C187.312538,14.4016258 187.492484,14.4667742 187.708292,14.4667742 C188.010927,14.4667742 188.258195,14.3633032 188.452611,14.1563613 M189.339125,12.5506452 L189.339125,14.6353935 C189.339125,14.7273677 189.312699,14.8014581 189.259848,14.8576645 C189.206997,14.913871 189.1359,14.9413355 189.044669,14.9413355 C188.954696,14.9413355 188.881712,14.913871 188.826344,14.8576645 C188.770976,14.8014581 188.743292,14.7273677 188.743292,14.6353935 L188.743292,14.2674968 C188.647657,14.4872129 188.501058,14.6571097 188.305383,14.7771871 C188.10845,14.8972645 187.882575,14.9573032 187.62587,14.9573032 C187.389298,14.9573032 187.171602,14.9087613 186.972152,14.8116774 C186.773332,14.7145935 186.616037,14.5791871 186.500268,14.4054581 C186.385128,14.231729 186.326614,14.0401161 186.326614,13.8306194 C186.326614,13.5495871 186.397082,13.3311484 186.538648,13.1753032 C186.679584,13.0194581 186.911122,12.9070452 187.233262,12.8380645 C187.554772,12.7690839 188.002748,12.7339548 188.57656,12.7339548 L188.743292,12.7339548 L188.743292,12.4816645 C188.743292,12.1744452 188.681003,11.9502581 188.558313,11.8071871 C188.434994,11.6641161 188.234286,11.5925806 187.958076,11.5925806 C187.615174,11.5925806 187.267867,11.6871097 186.916155,11.8761677 C186.780253,11.9630323 186.683988,12.0064645 186.62925,12.0064645 C186.568848,12.0064645 186.518514,11.983471 186.477617,11.9374839 C186.437979,11.8914968 186.417845,11.8327355 186.417845,11.7612 C186.417845,11.6896645 186.439237,11.627071 186.481392,11.5734194 C186.524806,11.5197677 186.594016,11.4648387 186.689022,11.4086323 C186.865821,11.3064387 187.0659,11.2259613 187.289259,11.1672 C187.513876,11.1090774 187.735976,11.0790581 187.958076,11.0790581 C188.879195,11.0790581 189.339125,11.5695871 189.339125,12.5506452" id="Fill-57"></path>
            <path d="M192.420027,14.6965181 C192.420027,14.7840213 192.387939,14.848531 192.32565,14.8926019 C192.262733,14.9353955 192.168356,14.9520019 192.041891,14.9417826 L191.838666,14.9264535 C191.435991,14.8957955 191.139018,14.7731632 190.947748,14.5585568 C190.755848,14.3439503 190.660842,14.0194858 190.660842,13.5851632 L190.660842,11.6613697 L190.154353,11.6613697 C190.069413,11.6613697 190.002091,11.6396535 189.954903,11.5962213 C189.907085,11.552789 189.883176,11.4953052 189.883176,11.4237697 C189.883176,11.3471245 189.907085,11.2858084 189.954903,11.2398213 C190.002091,11.1944729 190.069413,11.1708406 190.154353,11.1708406 L190.660842,11.1708406 L190.660842,10.3047503 C190.660842,10.2083052 190.688526,10.1322987 190.743894,10.0792858 C190.799261,10.0256342 190.874763,9.99880839 190.969769,9.99880839 C191.061,9.99880839 191.133985,10.0256342 191.189353,10.0792858 C191.24472,10.1322987 191.272404,10.2083052 191.272404,10.3047503 L191.272404,11.1708406 L192.110471,11.1708406 C192.191006,11.1708406 192.254553,11.1944729 192.302371,11.2398213 C192.350818,11.2858084 192.374726,11.3471245 192.374726,11.4237697 C192.374726,11.4953052 192.350818,11.552789 192.302371,11.5962213 C192.254553,11.6396535 192.191006,11.6613697 192.110471,11.6613697 L191.272404,11.6613697 L191.272404,13.61646 C191.272404,13.8968535 191.32903,14.0999632 191.441653,14.225789 C191.555535,14.3503374 191.725413,14.4205955 191.951918,14.4359245 L192.155772,14.4512535 C192.331313,14.4672213 192.420027,14.5489761 192.420027,14.6965181" id="Fill-59"></path>
            <path d="M195.020929,14.1563613 C195.214716,13.9494194 195.31161,13.6824387 195.31161,13.3554194 L195.31161,13.1325097 L195.175707,13.1325097 C194.732765,13.1325097 194.395525,13.1523097 194.163987,13.1906323 C193.932449,13.2289548 193.767604,13.2928258 193.669452,13.3822452 C193.5713,13.4716645 193.522224,13.6032387 193.522224,13.7769677 C193.522224,13.9762452 193.59395,14.1410323 193.737403,14.271329 C193.880856,14.4016258 194.060801,14.4667742 194.277239,14.4667742 C194.579245,14.4667742 194.827142,14.3633032 195.020929,14.1563613 M195.908072,12.5506452 L195.908072,14.6353935 C195.908072,14.7273677 195.881646,14.8014581 195.828795,14.8576645 C195.775944,14.913871 195.704218,14.9413355 195.613616,14.9413355 C195.523014,14.9413355 195.450029,14.913871 195.394661,14.8576645 C195.339294,14.8014581 195.31161,14.7273677 195.31161,14.6353935 L195.31161,14.2674968 C195.215974,14.4872129 195.070005,14.6571097 194.873701,14.7771871 C194.677397,14.8972645 194.450892,14.9573032 194.194187,14.9573032 C193.957616,14.9573032 193.73992,14.9087613 193.541099,14.8116774 C193.342278,14.7145935 193.184984,14.5791871 193.069215,14.4054581 C192.953446,14.231729 192.895561,14.0401161 192.895561,13.8306194 C192.895561,13.5495871 192.966029,13.3311484 193.106965,13.1753032 C193.247902,13.0194581 193.47944,12.9070452 193.802209,12.8380645 C194.123719,12.7690839 194.571695,12.7339548 195.145506,12.7339548 L195.31161,12.7339548 L195.31161,12.4816645 C195.31161,12.1744452 195.24995,11.9502581 195.126631,11.8071871 C195.003312,11.6641161 194.803233,11.5925806 194.526394,11.5925806 C194.18412,11.5925806 193.836813,11.6871097 193.484473,11.8761677 C193.34857,11.9630323 193.252935,12.0064645 193.197567,12.0064645 C193.137166,12.0064645 193.086832,11.983471 193.046564,11.9374839 C193.006297,11.8914968 192.986163,11.8327355 192.986163,11.7612 C192.986163,11.6896645 193.007555,11.627071 193.050339,11.5734194 C193.093123,11.5197677 193.162333,11.4648387 193.257968,11.4086323 C193.434139,11.3064387 193.634218,11.2259613 193.858205,11.1672 C194.082193,11.1090774 194.304923,11.0790581 194.526394,11.0790581 C195.447512,11.0790581 195.908072,11.5695871 195.908072,12.5506452" id="Fill-61"></path>
            <path d="M200.01504,14.631689 C199.647599,14.4087794 199.364468,14.0900632 199.165648,13.6736245 C198.966827,13.2571858 198.867417,12.7653794 198.867417,12.1975665 C198.867417,11.6361406 198.966827,11.146889 199.165648,10.7304503 C199.364468,10.3140116 199.647599,9.99465677 200.01504,9.77238581 C200.382481,9.55011484 200.817873,9.43897935 201.321216,9.43897935 C201.658456,9.43897935 201.976821,9.49390839 202.27631,9.60376645 C202.5758,9.71362452 202.83628,9.8707471 203.057751,10.0751342 C203.138286,10.1511406 203.178553,10.2411987 203.178553,10.3433923 C203.178553,10.414289 203.15842,10.4775213 203.118152,10.5311729 C203.077885,10.5848245 203.030067,10.6116503 202.974699,10.6116503 C202.914298,10.6116503 202.841313,10.5835471 202.755745,10.5273406 C202.49904,10.3229535 202.266243,10.1798826 202.057356,10.097489 C201.848468,10.0157342 201.608122,9.97549548 201.336316,9.97549548 C200.752438,9.97549548 200.303204,10.1683858 199.988614,10.5541665 C199.674025,10.9399471 199.51673,11.48796 199.51673,12.1975665 C199.51673,12.91356 199.674025,13.4641277 199.988614,13.8492697 C200.303204,14.235689 200.752438,14.4285794 201.336316,14.4285794 C201.603088,14.4285794 201.842177,14.3877019 202.053581,14.3059471 C202.264985,14.2241923 202.49904,14.0811213 202.755745,13.8760955 C202.841313,13.819889 202.914298,13.7924245 202.974699,13.7924245 C203.030067,13.7924245 203.077885,13.8179729 203.118152,13.8690697 C203.15842,13.9201665 203.178553,13.9833987 203.178553,14.0600439 C203.178553,14.1628761 203.138286,14.2522955 203.057751,14.3283019 C202.83628,14.5333277 202.5758,14.6904503 202.27631,14.8003084 C201.976821,14.9101665 201.658456,14.9644568 201.321216,14.9644568 C200.817873,14.9644568 200.382481,14.85396 200.01504,14.631689" id="Fill-63"></path>
            <path d="M204.76031,11.8685032 C204.566523,12.0728903 204.452012,12.3615871 204.416778,12.7339548 L206.553471,12.7339548 C206.543405,12.3564774 206.450286,12.0671419 206.274116,11.864671 C206.097946,11.6628387 205.851307,11.5619226 205.534201,11.5619226 C205.212061,11.5619226 204.954098,11.6641161 204.76031,11.8685032 M206.99893,14.1065419 C207.039198,14.152529 207.059332,14.2112903 207.059332,14.2828258 C207.059332,14.4105677 206.971247,14.5280903 206.795076,14.6353935 C206.613873,14.7426968 206.422602,14.8231742 206.221265,14.8768258 C206.019927,14.9304774 205.823623,14.9573032 205.632353,14.9573032 C205.062946,14.9573032 204.614341,14.786129 204.284651,14.4437806 C203.954961,14.1014323 203.790116,13.6287871 203.790116,13.0258452 C203.790116,12.6426194 203.863101,12.3041032 204.00907,12.0102968 C204.15504,11.7164903 204.360152,11.4878323 204.624408,11.3243226 C204.888663,11.1608129 205.189411,11.0790581 205.526651,11.0790581 C206.004827,11.0790581 206.384851,11.2374581 206.666724,11.5542581 C206.948596,11.8710581 207.089532,12.300271 207.089532,12.8418968 C207.089532,12.9440903 207.069398,13.0181806 207.029131,13.0641677 C206.988864,13.1101548 206.923429,13.1325097 206.832827,13.1325097 L204.401678,13.1325097 C204.446979,14.0120129 204.857204,14.4514452 205.632353,14.4514452 C205.828657,14.4514452 205.997277,14.4246194 206.138213,14.3709677 C206.279149,14.3173161 206.430152,14.2445032 206.591222,14.152529 C206.722091,14.0758839 206.810177,14.0375613 206.855478,14.0375613 C206.910845,14.0375613 206.958663,14.0605548 206.99893,14.1065419" id="Fill-65"></path>
            <path d="M211.159001,12.5583735 L211.159001,14.6354574 C211.159001,14.7325413 211.132576,14.8072703 211.079725,14.8609219 C211.026874,14.9145735 210.95263,14.9413994 210.857624,14.9413994 C210.76136,14.9413994 210.685858,14.9145735 210.630491,14.8609219 C210.575123,14.8072703 210.547439,14.7325413 210.547439,14.6354574 L210.547439,12.5966961 C210.547439,12.2492381 210.480746,11.996309 210.34736,11.837909 C210.213974,11.679509 210.001311,11.600309 209.709372,11.600309 C209.372132,11.600309 209.102843,11.7050574 208.901506,11.9145542 C208.700168,12.124051 208.600129,12.4076381 208.600129,12.7653155 L208.600129,14.6354574 C208.600129,14.7325413 208.573703,14.8072703 208.520852,14.8609219 C208.468001,14.9145735 208.393129,14.9413994 208.297494,14.9413994 C208.201858,14.9413994 208.126986,14.9145735 208.071618,14.8609219 C208.015621,14.8072703 207.987937,14.7325413 207.987937,14.6354574 L207.987937,11.4010316 C207.987937,11.3090574 208.015621,11.2349671 208.071618,11.1787606 C208.126986,11.1225542 208.201858,11.094451 208.297494,11.094451 C208.388725,11.094451 208.459822,11.1225542 208.512673,11.1787606 C208.565524,11.2349671 208.59195,11.3065026 208.59195,11.3933671 L208.59195,11.7842574 C208.712752,11.5543219 208.881372,11.3793155 209.098439,11.2592381 C209.314247,11.1391606 209.560886,11.0791219 209.837725,11.0791219 C210.718576,11.0791219 211.159001,11.5722058 211.159001,12.5583735" id="Fill-67"></path>
            <path d="M214.239778,14.6965181 C214.239778,14.7840213 214.20769,14.848531 214.145401,14.8926019 C214.082483,14.9353955 213.988106,14.9520019 213.861641,14.9417826 L213.658416,14.9264535 C213.255741,14.8957955 212.958769,14.7731632 212.767498,14.5585568 C212.575598,14.3439503 212.480592,14.0194858 212.480592,13.5851632 L212.480592,11.6613697 L211.974103,11.6613697 C211.889164,11.6613697 211.821842,11.6396535 211.774653,11.5962213 C211.726836,11.552789 211.702927,11.4953052 211.702927,11.4237697 C211.702927,11.3471245 211.726836,11.2858084 211.774653,11.2398213 C211.821842,11.1944729 211.889164,11.1708406 211.974103,11.1708406 L212.480592,11.1708406 L212.480592,10.3047503 C212.480592,10.2083052 212.508276,10.1322987 212.563644,10.0792858 C212.619012,10.0256342 212.694513,9.99880839 212.789519,9.99880839 C212.88075,9.99880839 212.953735,10.0256342 213.009103,10.0792858 C213.064471,10.1322987 213.092155,10.2083052 213.092155,10.3047503 L213.092155,11.1708406 L213.930222,11.1708406 C214.010757,11.1708406 214.074304,11.1944729 214.122121,11.2398213 C214.170568,11.2858084 214.194477,11.3471245 214.194477,11.4237697 C214.194477,11.4953052 214.170568,11.552789 214.122121,11.5962213 C214.074304,11.6396535 214.010757,11.6613697 213.930222,11.6613697 L213.092155,11.6613697 L213.092155,13.61646 C213.092155,13.8968535 213.148781,14.0999632 213.261404,14.225789 C213.375285,14.3503374 213.545164,14.4205955 213.771668,14.4359245 L213.975522,14.4512535 C214.151064,14.4672213 214.239778,14.5489761 214.239778,14.6965181" id="Fill-69"></path>
            <path d="M215.59459,11.8685032 C215.400802,12.0728903 215.286292,12.3615871 215.251058,12.7339548 L217.387751,12.7339548 C217.377684,12.3564774 217.284565,12.0671419 217.108395,11.864671 C216.932225,11.6628387 216.685587,11.5619226 216.36848,11.5619226 C216.04634,11.5619226 215.788377,11.6641161 215.59459,11.8685032 M217.83321,14.1065419 C217.873477,14.152529 217.893611,14.2112903 217.893611,14.2828258 C217.893611,14.4105677 217.805526,14.5280903 217.629356,14.6353935 C217.448152,14.7426968 217.256881,14.8231742 217.055544,14.8768258 C216.854207,14.9304774 216.657903,14.9573032 216.466632,14.9573032 C215.897225,14.9573032 215.44862,14.786129 215.11893,14.4437806 C214.78924,14.1014323 214.624395,13.6287871 214.624395,13.0258452 C214.624395,12.6426194 214.69738,12.3041032 214.84335,12.0102968 C214.989319,11.7164903 215.194432,11.4878323 215.458687,11.3243226 C215.722942,11.1608129 216.02369,11.0790581 216.36093,11.0790581 C216.839106,11.0790581 217.219131,11.2374581 217.501003,11.5542581 C217.782875,11.8710581 217.923812,12.300271 217.923812,12.8418968 C217.923812,12.9440903 217.903678,13.0181806 217.86341,13.0641677 C217.823143,13.1101548 217.757708,13.1325097 217.667106,13.1325097 L215.235957,13.1325097 C215.281258,14.0120129 215.691483,14.4514452 216.466632,14.4514452 C216.662936,14.4514452 216.831556,14.4246194 216.972492,14.3709677 C217.113429,14.3173161 217.264432,14.2445032 217.425502,14.152529 C217.556371,14.0758839 217.644456,14.0375613 217.689757,14.0375613 C217.745125,14.0375613 217.792942,14.0605548 217.83321,14.1065419" id="Fill-71"></path>
            <path d="M220.959224,11.3551723 C220.959224,11.4369271 220.936574,11.5014368 220.891273,11.5506174 C220.845972,11.5991594 220.767325,11.62854 220.657218,11.6381206 L220.430714,11.6611142 C220.093474,11.6917723 219.84306,11.8137658 219.679474,12.0258174 C219.515887,12.237869 219.434094,12.4863271 219.434094,12.7731077 L219.434094,14.6355852 C219.434094,14.7377787 219.40641,14.8144239 219.351042,14.8655206 C219.295045,14.9159787 219.222689,14.9415271 219.132088,14.9415271 C219.041486,14.9415271 218.967243,14.9147013 218.909358,14.8610497 C218.850844,14.8073981 218.822531,14.732669 218.822531,14.6355852 L218.822531,11.4005206 C218.822531,11.3040755 218.852732,11.2287077 218.913133,11.1750561 C218.973534,11.1214045 219.046519,11.0945787 219.132088,11.0945787 C219.212622,11.0945787 219.280574,11.1214045 219.335942,11.1750561 C219.391309,11.2287077 219.418993,11.3015206 219.418993,11.3934948 L219.418993,11.822069 C219.524695,11.5978819 219.67444,11.426069 219.868227,11.3091852 C220.062015,11.1916626 220.284744,11.1226819 220.536416,11.1022432 L220.642118,11.0945787 C220.853522,11.078611 220.959224,11.1661142 220.959224,11.3551723" id="Fill-73"></path>
            <path d="M222.027067,14.8730574 C221.81818,14.816851 221.633201,14.737651 221.472131,14.6354574 C221.382159,14.5741413 221.317353,14.5160187 221.280232,14.4623671 C221.241852,14.4087155 221.223605,14.3442058 221.223605,14.2675606 C221.223605,14.2011348 221.241852,14.1462058 221.280232,14.1027735 C221.317353,14.0593413 221.366429,14.0369865 221.42683,14.0369865 C221.487861,14.0369865 221.575317,14.0759477 221.691715,14.1525929 C221.842089,14.2445671 221.991833,14.31738 222.140949,14.3710316 C222.288806,14.4246832 222.473785,14.451509 222.695256,14.451509 C222.967061,14.451509 223.178466,14.4029671 223.329469,14.3058832 C223.481101,14.2087994 223.556602,14.0682832 223.556602,13.8843348 C223.556602,13.7719219 223.528919,13.6812252 223.473551,13.6116058 C223.417554,13.5432639 223.322548,13.4819477 223.186645,13.4282961 C223.050113,13.3746445 222.851922,13.3197155 222.590183,13.2628703 C222.146612,13.1664252 221.830134,13.0361284 221.638864,12.8726187 C221.446964,12.709109 221.351958,12.4868381 221.351958,12.2058058 C221.351958,11.985451 221.41173,11.7919219 221.533162,11.6233026 C221.653335,11.4540445 221.820697,11.3211929 222.035247,11.2247477 C222.249168,11.1276639 222.491402,11.0791219 222.763207,11.0791219 C222.959511,11.0791219 223.149523,11.1059477 223.333244,11.1595994 C223.516964,11.213251 223.679292,11.2886187 223.820858,11.3857026 C223.991365,11.5076961 224.077563,11.6360768 224.077563,11.7689284 C224.077563,11.8353542 224.057429,11.8915606 224.016533,11.9375477 C223.976894,11.9835348 223.928447,12.0065284 223.873709,12.0065284 C223.812678,12.0065284 223.722077,11.9630961 223.601274,11.8762316 C223.460338,11.7842574 223.326952,11.7127219 223.201116,11.6616252 C223.07528,11.6105284 222.919244,11.58498 222.733007,11.58498 C222.496435,11.58498 222.306423,11.6386316 222.163599,11.7459348 C222.019517,11.8525994 221.947791,11.996309 221.947791,12.174509 C221.947791,12.2875606 221.974216,12.3782574 222.027067,12.4472381 C222.079919,12.5162187 222.168633,12.5775348 222.291323,12.6311865 C222.414642,12.6848381 222.592071,12.7372123 222.824238,12.788309 C223.166511,12.8643155 223.431396,12.9492639 223.62015,13.0412381 C223.808903,13.1325735 223.943548,13.2456252 224.024712,13.3784768 C224.105247,13.5113284 224.144885,13.6799477 224.144885,13.8843348 C224.144885,14.2062445 224.011499,14.4655606 223.744727,14.6622832 C223.478584,14.8590058 223.125615,14.9573671 222.688335,14.9573671 C222.456797,14.9573671 222.235955,14.9292639 222.027067,14.8730574" id="Fill-75"></path>
            <path d="M175.906524,20.3061135 C175.73287,20.3061135 175.591934,20.1630426 175.591934,19.9867587 L175.591934,2.15653935 C175.591934,1.98025548 175.73287,1.83718452 175.906524,1.83718452 C176.080177,1.83718452 176.221113,1.98025548 176.221113,2.15653935 L176.221113,19.9867587 C176.221113,20.1630426 176.080177,20.3061135 175.906524,20.3061135" id="Fill-77"></path>
        </g>
    </g>
</svg>