<?xml version="1.0" encoding="utf-8"?>
<!-- Generator: Adobe Illustrator 15.0.0, SVG Export Plug-In . SVG Version: 6.00 Build 0)  -->
<!DOCTYPE svg PUBLIC "-//W3C//DTD SVG 1.1//EN" "http://www.w3.org/Graphics/SVG/1.1/DTD/svg11.dtd">
<svg version="1.1" id="Layer_1" xmlns="http://www.w3.org/2000/svg" xmlns:xlink="http://www.w3.org/1999/xlink" x="0px" y="0px"
	 width="1360.63px" height="1020.47px" viewBox="0 0 1360.63 1020.47" enable-background="new 0 0 1360.63 1020.47"
	 xml:space="preserve">
<path d="M573.236,369.428c0,26.549,0,53.1,0,79.649c16.039,1.261,27.983,3.351,39.142-1.601c21.651-9.6,26.4-46.51,13.91-65.31
	C617.236,368.557,596.503,365.217,573.236,369.428z M1231,136.848H871.521v-87.61c-173.544,27.43-345.821,56.03-518.295,84.43
	v641.959c173.26,27.689,345.536,56.279,518.295,84.43c0.58-35.311-0.141-106.92-0.141-106.92l359.62,0.189
	c0,0,27.583-0.367,27.583-27.656V164.41C1258.583,139.725,1231,136.848,1231,136.848z M656.728,485.708
	c-21.247,14.1-49.983,15.86-85.227,16.73v90.798h-52.178V321.637c-0.076-1.129-0.142-2.26,0.874-2.39
	c29.49,0.95,63.456-1.26,94.791,0c12.064,0.49,23.998,0.36,31.302,2.39c27.667,7.681,46.206,36.551,48.695,66.11
	C698.555,430.198,684.635,467.188,656.728,485.708z M1230.671,725.447h-359.15v-70.881h280.006v-31.859l-280.006-0.801v-54.959
	h280.006v-32.65H871.521l-0.038-100.17c20.82,30.146,55.608,49.904,95.017,49.904c63.734,0,115.402-51.668,115.402-115.404H966.499
	V253.223c-39.439,0-74.252,19.79-95.066,49.977l-0.053-138.472h359.291V725.447z M1064.026,268.732
	c-31.992-30.415-80.045-32.276-80.045-32.276v115.403h115.404C1099.386,351.859,1099.386,302.35,1064.026,268.732z"/>
</svg>
