<?xml version="1.0" encoding="utf-8"?>
<!-- Generator: Adobe Illustrator 15.0.0, SVG Export Plug-In . SVG Version: 6.00 Build 0)  -->
<!DOCTYPE svg PUBLIC "-//W3C//DTD SVG 1.1//EN" "http://www.w3.org/Graphics/SVG/1.1/DTD/svg11.dtd">
<svg version="1.1" id="Layer_1" xmlns="http://www.w3.org/2000/svg" xmlns:xlink="http://www.w3.org/1999/xlink" x="0px" y="0px"
	 width="1360.63px" height="1020.47px" viewBox="0 0 1360.63 1020.47" enable-background="new 0 0 1360.63 1020.47"
	 xml:space="preserve">
<g>
	<path fill-rule="evenodd" clip-rule="evenodd" d="M718.614,60.187c2.082,0,4.168,0,6.248,0c0,276.244,0,552.493,0,828.734
		c-2.08,0-4.166,0-6.248,0c-178.321-30.932-361.689-57.296-543.738-84.853c0-219.676,0-439.356,0-659.029
		C357.295,117.818,540.062,90.909,718.614,60.187z M556.115,320.402l-43.748,203.649l-43.749-197.99l-62.499,2.828l-43.749,186.678
		l-34.374-181.021l-56.248,2.828l56.248,277.188l59.373,2.828l46.875-183.849l43.75,186.675l65.623,5.661l74.997-308.302
		L556.115,320.402z"/>
	<polygon fill-rule="evenodd" clip-rule="evenodd" points="751.338,709.089 751.338,798.573 1096.92,798.573 1096.92,149.995 
		751.338,149.995 751.338,230.642 1022.896,229.914 1022.896,267.44 751.338,267.44 751.338,316.511 1022.896,316.511 
		1022.896,354.038 751.338,354.038 751.338,405.997 1022.896,405.997 1022.896,443.522 751.338,443.522 751.338,492.595 
		1022.896,492.595 1022.896,533.005 751.338,533.005 751.338,582.082 1022.896,582.082 1022.595,620.332 751.338,620.332 
		751.338,672.29 1022.595,672.29 1022.595,709.818 	"/>
</g>
</svg>
